<svg width="2048" height="564" viewBox="0 0 2048 564" fill="none" xmlns="http://www.w3.org/2000/svg">
<path d="M160.566 352.941V94.8315H252.244V62.19H32.6191V94.8315H124.297V352.941H160.566Z" fill="url(#paint0_linear_2026_8064)"/>
<path d="M245.759 352.941H280.818V222.375C280.818 192.756 298.55 173.211 325.751 173.211C334.213 173.211 341.669 174.219 344.49 175.226V141.174C341.669 140.771 336.43 139.764 330.385 139.764C305.803 139.764 286.46 154.473 279.61 177.644H278.804V143.391H245.759V352.941Z" fill="url(#paint1_linear_2026_8064)"/>
<path d="M445.198 326.747C420.011 326.747 403.288 313.65 403.288 293.703C403.288 273.957 419.407 261.464 447.616 259.651L503.63 256.225V273.352C503.63 303.576 478.242 326.747 445.198 326.747ZM437.34 356.568C465.548 356.568 492.145 340.852 504.637 316.874H505.443V352.941H538.689V208.069C538.689 166.361 507.66 139.764 458.496 139.764C408.929 139.764 377.9 167.57 375.482 203.838H409.332C413.765 183.286 430.69 170.592 457.69 170.592C486.705 170.592 503.63 185.905 503.63 211.495V229.024L443.586 232.45C395.228 235.27 367.624 257.837 367.624 293.703C367.624 331.381 395.631 356.568 437.34 356.568Z" fill="url(#paint2_linear_2026_8064)"/>
<path d="M764.322 212.099C759.889 174.42 728.658 139.764 676.27 139.764C618.443 139.764 579.958 182.077 579.958 248.166C579.958 315.665 618.644 356.568 676.673 356.568C724.225 356.568 759.284 327.15 764.725 285.442H730.27C724.225 310.628 705.486 325.74 676.875 325.74C640.607 325.74 615.622 296.927 615.622 248.166C615.622 200.614 640.203 170.592 676.472 170.592C707.3 170.592 725.031 189.331 730.068 212.099H764.322Z" fill="url(#paint3_linear_2026_8064)"/>
<path d="M888 170.189C921.044 170.189 943.007 195.174 943.813 230.233H829.971C832.187 195.375 855.157 170.189 888 170.189ZM943.007 292.897C937.163 312.643 917.619 326.143 891.022 326.143C853.343 326.143 829.769 299.747 829.769 259.651V257.636H980.081V244.338C980.081 180.868 945.223 139.764 888.604 139.764C830.777 139.764 793.702 183.89 793.702 248.972C793.702 314.859 830.172 356.568 890.216 356.568C935.955 356.568 971.417 329.568 977.462 292.897H943.007Z" fill="url(#paint4_linear_2026_8064)"/>
<path d="M1296.15 320.299H1155.91V62.19H1119.64V352.941H1296.15V320.299Z" fill="url(#paint5_linear_2026_8064)"/>
<path fill-rule="evenodd" clip-rule="evenodd" d="M1618.91 110.41C1624.73 112.514 1628.71 116.1 1631.33 121.6C1634.23 127.667 1634.81 132.128 1633.41 137.456L1632.32 141.62L1639.49 149.769C1649.79 161.467 1655.79 170.266 1661.83 182.544C1674.47 208.212 1676.45 232.03 1668.16 258.708C1661.38 280.515 1644.78 304.817 1626.11 320.263L1620.86 324.606L1620.93 329.484C1621.02 335.812 1618.17 342.083 1613.7 345.353C1605.96 351.023 1582.08 361.791 1569.07 365.477L1562.9 367.227V383.445C1562.9 402.444 1562.22 405.911 1557.5 411.09C1555.85 412.907 1553.47 414.823 1552.22 415.347C1549.72 416.393 1549.5 417.03 1548.87 424.954C1548.27 432.59 1545.13 443.72 1541.23 452.042C1518.91 499.703 1461.71 517.297 1416.83 490.306C1396.29 477.952 1381.43 456.568 1375.97 431.495C1375.07 427.345 1374.58 419.91 1374.24 405.032L1373.77 384.341L1369.59 383.284C1359.02 380.617 1349.41 373.786 1343.43 364.688C1331.34 346.308 1333.27 323.29 1348.23 307.365C1359.76 295.092 1375.91 290.342 1391.97 294.495C1400.26 296.64 1406.4 300.188 1412.63 306.442C1421.76 315.607 1425.96 325.896 1425.98 339.148C1426 352.021 1421.22 363.238 1412 371.962C1405.18 378.409 1398.05 382.208 1389.09 384.154L1386.9 384.63L1387.33 404.792C1387.62 418.749 1388.1 426.493 1388.9 429.956C1394.97 456.195 1412.4 476.493 1436.52 485.394C1471.58 498.332 1511.09 482.718 1528.25 449.147C1532.49 440.851 1535.47 430.596 1535.96 422.645L1536.33 416.489L1532.7 414.18C1530.5 412.783 1528.16 410.377 1526.77 408.087L1524.47 404.303L1523.7 367.583L1512.67 363.842C1500.47 359.707 1488.94 354.727 1479.44 349.493C1469.22 343.857 1465.07 337.63 1465.62 328.747C1465.84 325.28 1465.64 324.729 1463.58 323.017C1442.58 305.59 1427.18 284.193 1419.24 261.423C1405.82 222.946 1416.1 182.88 1448.15 148.638L1454.29 142.081L1453.42 139.136C1448.2 121.537 1464.27 105.005 1481.62 110.107C1486.64 111.581 1492.88 116.847 1495.32 121.662C1497.55 126.059 1498.04 134.553 1496.36 139.673C1494.66 144.842 1490.01 150.032 1484.74 152.639C1479.37 155.298 1472.34 155.565 1466.69 153.324L1462.95 151.84L1457.4 157.783C1442.97 173.248 1433.58 189.525 1428.84 207.29C1426.8 214.921 1426.06 232.724 1427.42 241.329C1429.49 254.363 1436.57 271.387 1445.12 283.92C1452.45 294.667 1460.09 302.967 1471.74 312.838C1472.89 313.812 1473.46 313.748 1476.48 312.31C1478.87 311.176 1481.42 310.675 1484.8 310.675C1489.32 310.675 1490.48 311.082 1501.03 316.359C1517.13 324.416 1537.67 331.718 1543.87 331.593C1546.15 331.548 1562.03 326.747 1568.99 324.001C1571.71 322.928 1579.19 319.432 1585.6 316.234C1595.98 311.06 1597.75 310.419 1601.59 310.422C1604.36 310.424 1607.23 311.023 1609.63 312.096L1613.35 313.765L1616.1 311.691C1617.6 310.55 1622.43 305.956 1626.83 301.482C1653.8 274.03 1665.44 238.857 1657.73 208.154C1653.21 190.153 1645.72 176.711 1630.45 159.209C1625.55 153.586 1623.86 152.121 1622.66 152.433C1621.81 152.653 1619.24 153.389 1616.94 154.069C1602.46 158.347 1587.91 146.131 1588.97 130.599C1590 115.468 1604.98 105.37 1618.91 110.41ZM1607.46 123.223C1599.95 126.397 1600.03 137.377 1607.6 140.76C1611.54 142.523 1614.42 142.116 1617.69 139.334C1621.83 135.811 1622.1 129.544 1618.29 125.39C1615.22 122.047 1611.84 121.372 1607.46 123.223ZM1470.74 123.326C1465.7 125.961 1464.02 132.786 1467.22 137.603C1472.45 145.453 1484.51 141.41 1484.51 131.811C1484.51 124.681 1477 120.052 1470.74 123.326ZM1572.84 189.064C1573.49 189.451 1579.62 198.27 1586.46 208.665L1598.9 227.563H1621.09C1642.34 227.563 1643.36 227.63 1644.94 229.123C1648.29 232.276 1647.6 237.591 1643.57 239.649C1640.88 241.025 1595.32 241.043 1592.58 239.67C1590.97 238.862 1586.7 232.814 1570.22 207.965C1569.3 206.58 1567.19 209.529 1545.49 242.43C1527.83 269.198 1521.24 278.607 1519.75 279.182C1514.92 281.035 1514.23 280.327 1500.71 259.813L1488.07 240.645H1466.45C1444.47 240.645 1442.71 240.441 1440.58 237.634C1438.99 235.536 1439.4 231.101 1441.37 229.236C1443.1 227.587 1443.5 227.563 1468.63 227.563C1494.11 227.563 1494.14 227.564 1495.7 229.294C1496.56 230.247 1501.64 237.692 1506.99 245.84C1512.34 253.988 1516.95 260.654 1517.24 260.654C1517.52 260.654 1528.16 244.862 1540.88 225.56C1553.6 206.258 1564.69 189.982 1565.53 189.391C1567.24 188.178 1571.05 188.008 1572.84 189.064ZM1373.04 307.237C1356.68 311.545 1346.13 327.545 1348.9 343.85C1350.74 354.742 1357.31 363.662 1367.04 368.507C1371.39 370.672 1373.08 371.067 1379.14 371.335C1384.41 371.568 1387.2 371.312 1390.25 370.315C1398.81 367.516 1406.34 360.881 1410.35 352.611C1412.43 348.32 1412.59 347.38 1412.59 339.148C1412.59 330.83 1412.45 329.998 1410.22 325.296C1403.27 310.605 1388.14 303.259 1373.04 307.237ZM1386.49 320.161C1399.68 324.38 1404.49 341.036 1395.57 351.572C1386.86 361.87 1370.34 360.3 1364.07 348.579C1359.67 340.361 1360.85 331.752 1367.26 325.273C1372.62 319.85 1379.66 317.977 1386.49 320.161ZM1593.15 327.176C1581.3 333.631 1565.32 339.833 1551.22 343.449C1543.69 345.38 1543.55 345.387 1537.84 344.123C1527.27 341.781 1511.66 336.044 1499.06 329.868C1492.21 326.508 1485.6 323.757 1484.38 323.757C1479.73 323.757 1476.84 329.603 1479.55 333.516C1482.67 338.019 1513.07 351.366 1529.03 355.241C1533.61 356.353 1535.18 357.445 1536.23 360.232C1536.7 361.483 1537.02 370.121 1537.02 381.559V400.783L1538.89 402.672C1541.31 405.117 1544.65 405.13 1547.45 402.705L1549.58 400.849L1549.96 380.023C1550.32 360.473 1550.44 359.105 1551.86 357.725C1552.7 356.915 1557.33 355.138 1562.14 353.775C1566.95 352.413 1573.97 350.092 1577.74 348.619C1586.78 345.083 1604.54 336.29 1606.36 334.45C1608.38 332.41 1608.27 327.821 1606.15 325.538C1603.63 322.826 1600.37 323.236 1593.15 327.176ZM1376.27 334.36C1375.55 335.092 1374.74 336.752 1374.49 338.049C1373.81 341.486 1377.09 345.305 1380.73 345.305C1387.44 345.305 1389.56 336.463 1383.67 333.08C1381.74 331.975 1377.98 332.625 1376.27 334.36Z" fill="url(#paint6_linear_2026_8064)"/>
<path d="M1725.96 352.941H1761.02V172.204H1803.74V143.391H1760.82V120.219C1760.82 99.4658 1769.89 89.3913 1788.83 89.3913C1794.67 89.3913 1800.52 89.9958 1804.75 90.6002V62.19C1799.71 61.3841 1791.25 60.5781 1783.39 60.5781C1744.7 60.5781 1725.96 79.7197 1725.96 120.018V143.391H1696.75V172.204H1725.96V352.941Z" fill="url(#paint7_linear_2026_8064)"/>
<path d="M1920.97 170.189C1954.01 170.189 1975.98 195.174 1976.78 230.233H1862.94C1865.16 195.375 1888.13 170.189 1920.97 170.189ZM1975.98 292.897C1970.13 312.643 1950.59 326.143 1923.99 326.143C1886.31 326.143 1862.74 299.747 1862.74 259.651V257.636H2013.05V244.338C2013.05 180.868 1978.19 139.764 1921.57 139.764C1863.75 139.764 1826.67 183.89 1826.67 248.972C1826.67 314.859 1863.14 356.568 1923.19 356.568C1968.92 356.568 2004.39 329.568 2010.43 292.897H1975.98Z" fill="url(#paint8_linear_2026_8064)"/>
<path d="M60.5781 450.695H45.3828V444.562H60.5781C63.5208 444.562 65.9036 444.094 67.7266 443.156C69.5495 442.219 70.8776 440.917 71.7109 439.25C72.5703 437.583 73 435.682 73 433.547C73 431.594 72.5703 429.758 71.7109 428.039C70.8776 426.32 69.5495 424.94 67.7266 423.898C65.9036 422.831 63.5208 422.297 60.5781 422.297H47.1406V473H39.6016V416.125H60.5781C64.875 416.125 68.5078 416.867 71.4766 418.352C74.4453 419.836 76.6979 421.893 78.2344 424.523C79.7708 427.128 80.5391 430.109 80.5391 433.469C80.5391 437.115 79.7708 440.227 78.2344 442.805C76.6979 445.383 74.4453 447.349 71.4766 448.703C68.5078 450.031 64.875 450.695 60.5781 450.695ZM86.5156 452.336V451.438C86.5156 448.391 86.9583 445.565 87.8438 442.961C88.7292 440.331 90.0052 438.052 91.6719 436.125C93.3385 434.172 95.3568 432.661 97.7266 431.594C100.096 430.5 102.753 429.953 105.695 429.953C108.664 429.953 111.333 430.5 113.703 431.594C116.099 432.661 118.13 434.172 119.797 436.125C121.49 438.052 122.779 440.331 123.664 442.961C124.549 445.565 124.992 448.391 124.992 451.438V452.336C124.992 455.383 124.549 458.208 123.664 460.812C122.779 463.417 121.49 465.695 119.797 467.648C118.13 469.576 116.112 471.086 113.742 472.18C111.398 473.247 108.742 473.781 105.773 473.781C102.805 473.781 100.135 473.247 97.7656 472.18C95.3958 471.086 93.3646 469.576 91.6719 467.648C90.0052 465.695 88.7292 463.417 87.8438 460.812C86.9583 458.208 86.5156 455.383 86.5156 452.336ZM93.7422 451.438V452.336C93.7422 454.445 93.9896 456.438 94.4844 458.312C94.9792 460.161 95.7214 461.802 96.7109 463.234C97.7266 464.667 98.9896 465.799 100.5 466.633C102.01 467.44 103.768 467.844 105.773 467.844C107.753 467.844 109.484 467.44 110.969 466.633C112.479 465.799 113.729 464.667 114.719 463.234C115.708 461.802 116.451 460.161 116.945 458.312C117.466 456.438 117.727 454.445 117.727 452.336V451.438C117.727 449.354 117.466 447.388 116.945 445.539C116.451 443.664 115.695 442.01 114.68 440.578C113.69 439.12 112.44 437.974 110.93 437.141C109.445 436.307 107.701 435.891 105.695 435.891C103.716 435.891 101.971 436.307 100.461 437.141C98.9766 437.974 97.7266 439.12 96.7109 440.578C95.7214 442.01 94.9792 443.664 94.4844 445.539C93.9896 447.388 93.7422 449.354 93.7422 451.438ZM144.758 465.5L155.617 430.734H160.383L159.445 437.648L148.391 473H143.742L144.758 465.5ZM137.453 430.734L146.711 465.891L147.375 473H142.492L130.227 430.734H137.453ZM170.773 465.617L179.602 430.734H186.789L174.523 473H169.68L170.773 465.617ZM161.438 430.734L172.062 464.914L173.273 473H168.664L157.297 437.57L156.359 430.734H161.438ZM211.75 473.781C208.807 473.781 206.138 473.286 203.742 472.297C201.372 471.281 199.328 469.862 197.609 468.039C195.917 466.216 194.615 464.055 193.703 461.555C192.792 459.055 192.336 456.32 192.336 453.352V451.711C192.336 448.273 192.844 445.214 193.859 442.531C194.875 439.823 196.255 437.531 198 435.656C199.745 433.781 201.724 432.362 203.938 431.398C206.151 430.435 208.443 429.953 210.812 429.953C213.833 429.953 216.438 430.474 218.625 431.516C220.839 432.557 222.648 434.016 224.055 435.891C225.461 437.74 226.503 439.927 227.18 442.453C227.857 444.953 228.195 447.688 228.195 450.656V453.898H196.633V448H220.969V447.453C220.865 445.578 220.474 443.755 219.797 441.984C219.146 440.214 218.104 438.755 216.672 437.609C215.24 436.464 213.286 435.891 210.812 435.891C209.172 435.891 207.661 436.242 206.281 436.945C204.901 437.622 203.716 438.638 202.727 439.992C201.737 441.346 200.969 443 200.422 444.953C199.875 446.906 199.602 449.159 199.602 451.711V453.352C199.602 455.357 199.875 457.245 200.422 459.016C200.995 460.76 201.815 462.297 202.883 463.625C203.977 464.953 205.292 465.995 206.828 466.75C208.391 467.505 210.161 467.883 212.141 467.883C214.693 467.883 216.854 467.362 218.625 466.32C220.396 465.279 221.945 463.885 223.273 462.141L227.648 465.617C226.737 466.997 225.578 468.312 224.172 469.562C222.766 470.812 221.034 471.828 218.977 472.609C216.945 473.391 214.536 473.781 211.75 473.781ZM243.859 437.375V473H236.633V430.734H243.664L243.859 437.375ZM257.062 430.5L257.023 437.219C256.424 437.089 255.852 437.01 255.305 436.984C254.784 436.932 254.185 436.906 253.508 436.906C251.841 436.906 250.37 437.167 249.094 437.688C247.818 438.208 246.737 438.938 245.852 439.875C244.966 440.812 244.263 441.932 243.742 443.234C243.247 444.51 242.922 445.917 242.766 447.453L240.734 448.625C240.734 446.073 240.982 443.677 241.477 441.438C241.997 439.198 242.792 437.219 243.859 435.5C244.927 433.755 246.281 432.401 247.922 431.438C249.589 430.448 251.568 429.953 253.859 429.953C254.38 429.953 254.979 430.018 255.656 430.148C256.333 430.253 256.802 430.37 257.062 430.5ZM280.5 473.781C277.557 473.781 274.888 473.286 272.492 472.297C270.122 471.281 268.078 469.862 266.359 468.039C264.667 466.216 263.365 464.055 262.453 461.555C261.542 459.055 261.086 456.32 261.086 453.352V451.711C261.086 448.273 261.594 445.214 262.609 442.531C263.625 439.823 265.005 437.531 266.75 435.656C268.495 433.781 270.474 432.362 272.688 431.398C274.901 430.435 277.193 429.953 279.562 429.953C282.583 429.953 285.188 430.474 287.375 431.516C289.589 432.557 291.398 434.016 292.805 435.891C294.211 437.74 295.253 439.927 295.93 442.453C296.607 444.953 296.945 447.688 296.945 450.656V453.898H265.383V448H289.719V447.453C289.615 445.578 289.224 443.755 288.547 441.984C287.896 440.214 286.854 438.755 285.422 437.609C283.99 436.464 282.036 435.891 279.562 435.891C277.922 435.891 276.411 436.242 275.031 436.945C273.651 437.622 272.466 438.638 271.477 439.992C270.487 441.346 269.719 443 269.172 444.953C268.625 446.906 268.352 449.159 268.352 451.711V453.352C268.352 455.357 268.625 457.245 269.172 459.016C269.745 460.76 270.565 462.297 271.633 463.625C272.727 464.953 274.042 465.995 275.578 466.75C277.141 467.505 278.911 467.883 280.891 467.883C283.443 467.883 285.604 467.362 287.375 466.32C289.146 465.279 290.695 463.885 292.023 462.141L296.398 465.617C295.487 466.997 294.328 468.312 292.922 469.562C291.516 470.812 289.784 471.828 287.727 472.609C285.695 473.391 283.286 473.781 280.5 473.781ZM332.023 464.797V413H339.289V473H332.648L332.023 464.797ZM303.586 452.336V451.516C303.586 448.286 303.977 445.357 304.758 442.727C305.565 440.07 306.698 437.792 308.156 435.891C309.641 433.99 311.398 432.531 313.43 431.516C315.487 430.474 317.779 429.953 320.305 429.953C322.961 429.953 325.279 430.422 327.258 431.359C329.263 432.271 330.956 433.612 332.336 435.383C333.742 437.128 334.849 439.237 335.656 441.711C336.464 444.185 337.023 446.984 337.336 450.109V453.703C337.049 456.802 336.49 459.589 335.656 462.062C334.849 464.536 333.742 466.646 332.336 468.391C330.956 470.135 329.263 471.477 327.258 472.414C325.253 473.326 322.909 473.781 320.227 473.781C317.753 473.781 315.487 473.247 313.43 472.18C311.398 471.112 309.641 469.615 308.156 467.688C306.698 465.76 305.565 463.495 304.758 460.891C303.977 458.26 303.586 455.409 303.586 452.336ZM310.852 451.516V452.336C310.852 454.445 311.06 456.424 311.477 458.273C311.919 460.122 312.596 461.75 313.508 463.156C314.419 464.562 315.578 465.669 316.984 466.477C318.391 467.258 320.07 467.648 322.023 467.648C324.419 467.648 326.385 467.141 327.922 466.125C329.484 465.109 330.734 463.768 331.672 462.102C332.609 460.435 333.339 458.625 333.859 456.672V447.258C333.547 445.826 333.091 444.445 332.492 443.117C331.919 441.763 331.164 440.565 330.227 439.523C329.315 438.456 328.182 437.609 326.828 436.984C325.5 436.359 323.924 436.047 322.102 436.047C320.122 436.047 318.417 436.464 316.984 437.297C315.578 438.104 314.419 439.224 313.508 440.656C312.596 442.062 311.919 443.703 311.477 445.578C311.06 447.427 310.852 449.406 310.852 451.516ZM370.344 413H377.609V464.797L376.984 473H370.344V413ZM406.164 451.516V452.336C406.164 455.409 405.799 458.26 405.07 460.891C404.341 463.495 403.273 465.76 401.867 467.688C400.461 469.615 398.742 471.112 396.711 472.18C394.68 473.247 392.349 473.781 389.719 473.781C387.036 473.781 384.68 473.326 382.648 472.414C380.643 471.477 378.951 470.135 377.57 468.391C376.19 466.646 375.083 464.536 374.25 462.062C373.443 459.589 372.883 456.802 372.57 453.703V450.109C372.883 446.984 373.443 444.185 374.25 441.711C375.083 439.237 376.19 437.128 377.57 435.383C378.951 433.612 380.643 432.271 382.648 431.359C384.654 430.422 386.984 429.953 389.641 429.953C392.297 429.953 394.654 430.474 396.711 431.516C398.768 432.531 400.487 433.99 401.867 435.891C403.273 437.792 404.341 440.07 405.07 442.727C405.799 445.357 406.164 448.286 406.164 451.516ZM398.898 452.336V451.516C398.898 449.406 398.703 447.427 398.312 445.578C397.922 443.703 397.297 442.062 396.438 440.656C395.578 439.224 394.445 438.104 393.039 437.297C391.633 436.464 389.901 436.047 387.844 436.047C386.021 436.047 384.432 436.359 383.078 436.984C381.75 437.609 380.617 438.456 379.68 439.523C378.742 440.565 377.974 441.763 377.375 443.117C376.802 444.445 376.372 445.826 376.086 447.258V456.672C376.503 458.495 377.18 460.253 378.117 461.945C379.081 463.612 380.357 464.979 381.945 466.047C383.56 467.115 385.552 467.648 387.922 467.648C389.875 467.648 391.542 467.258 392.922 466.477C394.328 465.669 395.461 464.562 396.32 463.156C397.206 461.75 397.857 460.122 398.273 458.273C398.69 456.424 398.898 454.445 398.898 452.336ZM426.711 468.625L438.469 430.734H446.203L429.25 479.523C428.859 480.565 428.339 481.685 427.688 482.883C427.062 484.107 426.255 485.266 425.266 486.359C424.276 487.453 423.078 488.339 421.672 489.016C420.292 489.719 418.638 490.07 416.711 490.07C416.138 490.07 415.409 489.992 414.523 489.836C413.638 489.68 413.013 489.549 412.648 489.445L412.609 483.586C412.818 483.612 413.143 483.638 413.586 483.664C414.055 483.716 414.38 483.742 414.562 483.742C416.203 483.742 417.596 483.521 418.742 483.078C419.888 482.661 420.852 481.945 421.633 480.93C422.44 479.94 423.13 478.573 423.703 476.828L426.711 468.625ZM418.078 430.734L429.055 463.547L430.93 471.164L425.734 473.82L410.188 430.734H418.078ZM473.664 416.125H492.492C496.763 416.125 500.37 416.776 503.312 418.078C506.281 419.38 508.534 421.307 510.07 423.859C511.633 426.385 512.414 429.497 512.414 433.195C512.414 435.799 511.88 438.182 510.812 440.344C509.771 442.479 508.26 444.302 506.281 445.812C504.328 447.297 501.984 448.404 499.25 449.133L497.141 449.953H479.445L479.367 443.82H492.727C495.435 443.82 497.688 443.352 499.484 442.414C501.281 441.451 502.635 440.161 503.547 438.547C504.458 436.932 504.914 435.148 504.914 433.195C504.914 431.008 504.484 429.094 503.625 427.453C502.766 425.812 501.411 424.549 499.562 423.664C497.74 422.753 495.383 422.297 492.492 422.297H481.203V473H473.664V416.125ZM506.906 473L493.078 447.219L500.93 447.18L514.953 472.531V473H506.906ZM546.789 465.773V444.016C546.789 442.349 546.451 440.904 545.773 439.68C545.122 438.43 544.133 437.466 542.805 436.789C541.477 436.112 539.836 435.773 537.883 435.773C536.06 435.773 534.458 436.086 533.078 436.711C531.724 437.336 530.656 438.156 529.875 439.172C529.12 440.188 528.742 441.281 528.742 442.453H521.516C521.516 440.943 521.906 439.445 522.688 437.961C523.469 436.477 524.589 435.135 526.047 433.938C527.531 432.714 529.302 431.75 531.359 431.047C533.443 430.318 535.76 429.953 538.312 429.953C541.385 429.953 544.094 430.474 546.438 431.516C548.807 432.557 550.656 434.133 551.984 436.242C553.339 438.326 554.016 440.943 554.016 444.094V463.781C554.016 465.188 554.133 466.685 554.367 468.273C554.628 469.862 555.005 471.229 555.5 472.375V473H547.961C547.596 472.167 547.31 471.06 547.102 469.68C546.893 468.273 546.789 466.971 546.789 465.773ZM548.039 447.375L548.117 452.453H540.812C538.755 452.453 536.919 452.622 535.305 452.961C533.69 453.273 532.336 453.755 531.242 454.406C530.148 455.057 529.315 455.878 528.742 456.867C528.169 457.831 527.883 458.964 527.883 460.266C527.883 461.594 528.182 462.805 528.781 463.898C529.38 464.992 530.279 465.865 531.477 466.516C532.701 467.141 534.198 467.453 535.969 467.453C538.182 467.453 540.135 466.984 541.828 466.047C543.521 465.109 544.862 463.964 545.852 462.609C546.867 461.255 547.414 459.94 547.492 458.664L550.578 462.141C550.396 463.234 549.901 464.445 549.094 465.773C548.286 467.102 547.206 468.378 545.852 469.602C544.523 470.799 542.935 471.802 541.086 472.609C539.263 473.391 537.206 473.781 534.914 473.781C532.049 473.781 529.536 473.221 527.375 472.102C525.24 470.982 523.573 469.484 522.375 467.609C521.203 465.708 520.617 463.586 520.617 461.242C520.617 458.977 521.06 456.984 521.945 455.266C522.831 453.521 524.107 452.076 525.773 450.93C527.44 449.758 529.445 448.872 531.789 448.273C534.133 447.674 536.75 447.375 539.641 447.375H548.039ZM582.297 467.844C584.016 467.844 585.604 467.492 587.062 466.789C588.521 466.086 589.719 465.122 590.656 463.898C591.594 462.648 592.128 461.229 592.258 459.641H599.133C599.003 462.141 598.156 464.471 596.594 466.633C595.057 468.768 593.039 470.5 590.539 471.828C588.039 473.13 585.292 473.781 582.297 473.781C579.12 473.781 576.346 473.221 573.977 472.102C571.633 470.982 569.68 469.445 568.117 467.492C566.581 465.539 565.422 463.299 564.641 460.773C563.885 458.221 563.508 455.526 563.508 452.688V451.047C563.508 448.208 563.885 445.526 564.641 443C565.422 440.448 566.581 438.195 568.117 436.242C569.68 434.289 571.633 432.753 573.977 431.633C576.346 430.513 579.12 429.953 582.297 429.953C585.604 429.953 588.495 430.63 590.969 431.984C593.443 433.312 595.383 435.135 596.789 437.453C598.221 439.745 599.003 442.349 599.133 445.266H592.258C592.128 443.521 591.633 441.945 590.773 440.539C589.94 439.133 588.794 438.013 587.336 437.18C585.904 436.32 584.224 435.891 582.297 435.891C580.083 435.891 578.221 436.333 576.711 437.219C575.227 438.078 574.042 439.25 573.156 440.734C572.297 442.193 571.672 443.82 571.281 445.617C570.917 447.388 570.734 449.198 570.734 451.047V452.688C570.734 454.536 570.917 456.359 571.281 458.156C571.646 459.953 572.258 461.581 573.117 463.039C574.003 464.497 575.188 465.669 576.672 466.555C578.182 467.414 580.057 467.844 582.297 467.844ZM615.109 413V473H607.844V413H615.109ZM624.797 452.336V451.438C624.797 448.391 625.24 445.565 626.125 442.961C627.01 440.331 628.286 438.052 629.953 436.125C631.62 434.172 633.638 432.661 636.008 431.594C638.378 430.5 641.034 429.953 643.977 429.953C646.945 429.953 649.615 430.5 651.984 431.594C654.38 432.661 656.411 434.172 658.078 436.125C659.771 438.052 661.06 440.331 661.945 442.961C662.831 445.565 663.273 448.391 663.273 451.438V452.336C663.273 455.383 662.831 458.208 661.945 460.812C661.06 463.417 659.771 465.695 658.078 467.648C656.411 469.576 654.393 471.086 652.023 472.18C649.68 473.247 647.023 473.781 644.055 473.781C641.086 473.781 638.417 473.247 636.047 472.18C633.677 471.086 631.646 469.576 629.953 467.648C628.286 465.695 627.01 463.417 626.125 460.812C625.24 458.208 624.797 455.383 624.797 452.336ZM632.023 451.438V452.336C632.023 454.445 632.271 456.438 632.766 458.312C633.26 460.161 634.003 461.802 634.992 463.234C636.008 464.667 637.271 465.799 638.781 466.633C640.292 467.44 642.049 467.844 644.055 467.844C646.034 467.844 647.766 467.44 649.25 466.633C650.76 465.799 652.01 464.667 653 463.234C653.99 461.802 654.732 460.161 655.227 458.312C655.747 456.438 656.008 454.445 656.008 452.336V451.438C656.008 449.354 655.747 447.388 655.227 445.539C654.732 443.664 653.977 442.01 652.961 440.578C651.971 439.12 650.721 437.974 649.211 437.141C647.727 436.307 645.982 435.891 643.977 435.891C641.997 435.891 640.253 436.307 638.742 437.141C637.258 437.974 636.008 439.12 634.992 440.578C634.003 442.01 633.26 443.664 632.766 445.539C632.271 447.388 632.023 449.354 632.023 451.438ZM670.422 452.336V451.438C670.422 448.391 670.865 445.565 671.75 442.961C672.635 440.331 673.911 438.052 675.578 436.125C677.245 434.172 679.263 432.661 681.633 431.594C684.003 430.5 686.659 429.953 689.602 429.953C692.57 429.953 695.24 430.5 697.609 431.594C700.005 432.661 702.036 434.172 703.703 436.125C705.396 438.052 706.685 440.331 707.57 442.961C708.456 445.565 708.898 448.391 708.898 451.438V452.336C708.898 455.383 708.456 458.208 707.57 460.812C706.685 463.417 705.396 465.695 703.703 467.648C702.036 469.576 700.018 471.086 697.648 472.18C695.305 473.247 692.648 473.781 689.68 473.781C686.711 473.781 684.042 473.247 681.672 472.18C679.302 471.086 677.271 469.576 675.578 467.648C673.911 465.695 672.635 463.417 671.75 460.812C670.865 458.208 670.422 455.383 670.422 452.336ZM677.648 451.438V452.336C677.648 454.445 677.896 456.438 678.391 458.312C678.885 460.161 679.628 461.802 680.617 463.234C681.633 464.667 682.896 465.799 684.406 466.633C685.917 467.44 687.674 467.844 689.68 467.844C691.659 467.844 693.391 467.44 694.875 466.633C696.385 465.799 697.635 464.667 698.625 463.234C699.615 461.802 700.357 460.161 700.852 458.312C701.372 456.438 701.633 454.445 701.633 452.336V451.438C701.633 449.354 701.372 447.388 700.852 445.539C700.357 443.664 699.602 442.01 698.586 440.578C697.596 439.12 696.346 437.974 694.836 437.141C693.352 436.307 691.607 435.891 689.602 435.891C687.622 435.891 685.878 436.307 684.367 437.141C682.883 437.974 681.633 439.12 680.617 440.578C679.628 442.01 678.885 443.664 678.391 445.539C677.896 447.388 677.648 449.354 677.648 451.438ZM725.188 438.859V489.25H717.922V430.734H724.562L725.188 438.859ZM753.664 451.516V452.336C753.664 455.409 753.299 458.26 752.57 460.891C751.841 463.495 750.773 465.76 749.367 467.688C747.987 469.615 746.281 471.112 744.25 472.18C742.219 473.247 739.888 473.781 737.258 473.781C734.576 473.781 732.206 473.339 730.148 472.453C728.091 471.568 726.346 470.279 724.914 468.586C723.482 466.893 722.336 464.862 721.477 462.492C720.643 460.122 720.07 457.453 719.758 454.484V450.109C720.07 446.984 720.656 444.185 721.516 441.711C722.375 439.237 723.508 437.128 724.914 435.383C726.346 433.612 728.078 432.271 730.109 431.359C732.141 430.422 734.484 429.953 737.141 429.953C739.797 429.953 742.154 430.474 744.211 431.516C746.268 432.531 748 433.99 749.406 435.891C750.812 437.792 751.867 440.07 752.57 442.727C753.299 445.357 753.664 448.286 753.664 451.516ZM746.398 452.336V451.516C746.398 449.406 746.177 447.427 745.734 445.578C745.292 443.703 744.602 442.062 743.664 440.656C742.753 439.224 741.581 438.104 740.148 437.297C738.716 436.464 737.01 436.047 735.031 436.047C733.208 436.047 731.62 436.359 730.266 436.984C728.938 437.609 727.805 438.456 726.867 439.523C725.93 440.565 725.161 441.763 724.562 443.117C723.99 444.445 723.56 445.826 723.273 447.258V457.375C723.794 459.198 724.523 460.917 725.461 462.531C726.398 464.12 727.648 465.409 729.211 466.398C730.773 467.362 732.74 467.844 735.109 467.844C737.062 467.844 738.742 467.44 740.148 466.633C741.581 465.799 742.753 464.667 743.664 463.234C744.602 461.802 745.292 460.161 745.734 458.312C746.177 456.438 746.398 454.445 746.398 452.336ZM803.273 416.125V473H795.852V416.125H803.273ZM821.555 416.125V422.297H777.609V416.125H821.555ZM842.531 473.781C839.589 473.781 836.919 473.286 834.523 472.297C832.154 471.281 830.109 469.862 828.391 468.039C826.698 466.216 825.396 464.055 824.484 461.555C823.573 459.055 823.117 456.32 823.117 453.352V451.711C823.117 448.273 823.625 445.214 824.641 442.531C825.656 439.823 827.036 437.531 828.781 435.656C830.526 433.781 832.505 432.362 834.719 431.398C836.932 430.435 839.224 429.953 841.594 429.953C844.615 429.953 847.219 430.474 849.406 431.516C851.62 432.557 853.43 434.016 854.836 435.891C856.242 437.74 857.284 439.927 857.961 442.453C858.638 444.953 858.977 447.688 858.977 450.656V453.898H827.414V448H851.75V447.453C851.646 445.578 851.255 443.755 850.578 441.984C849.927 440.214 848.885 438.755 847.453 437.609C846.021 436.464 844.068 435.891 841.594 435.891C839.953 435.891 838.443 436.242 837.062 436.945C835.682 437.622 834.497 438.638 833.508 439.992C832.518 441.346 831.75 443 831.203 444.953C830.656 446.906 830.383 449.159 830.383 451.711V453.352C830.383 455.357 830.656 457.245 831.203 459.016C831.776 460.76 832.596 462.297 833.664 463.625C834.758 464.953 836.073 465.995 837.609 466.75C839.172 467.505 840.943 467.883 842.922 467.883C845.474 467.883 847.635 467.362 849.406 466.32C851.177 465.279 852.727 463.885 854.055 462.141L858.43 465.617C857.518 466.997 856.359 468.312 854.953 469.562C853.547 470.812 851.815 471.828 849.758 472.609C847.727 473.391 845.318 473.781 842.531 473.781ZM884.328 467.844C886.047 467.844 887.635 467.492 889.094 466.789C890.552 466.086 891.75 465.122 892.688 463.898C893.625 462.648 894.159 461.229 894.289 459.641H901.164C901.034 462.141 900.188 464.471 898.625 466.633C897.089 468.768 895.07 470.5 892.57 471.828C890.07 473.13 887.323 473.781 884.328 473.781C881.151 473.781 878.378 473.221 876.008 472.102C873.664 470.982 871.711 469.445 870.148 467.492C868.612 465.539 867.453 463.299 866.672 460.773C865.917 458.221 865.539 455.526 865.539 452.688V451.047C865.539 448.208 865.917 445.526 866.672 443C867.453 440.448 868.612 438.195 870.148 436.242C871.711 434.289 873.664 432.753 876.008 431.633C878.378 430.513 881.151 429.953 884.328 429.953C887.635 429.953 890.526 430.63 893 431.984C895.474 433.312 897.414 435.135 898.82 437.453C900.253 439.745 901.034 442.349 901.164 445.266H894.289C894.159 443.521 893.664 441.945 892.805 440.539C891.971 439.133 890.826 438.013 889.367 437.18C887.935 436.32 886.255 435.891 884.328 435.891C882.115 435.891 880.253 436.333 878.742 437.219C877.258 438.078 876.073 439.25 875.188 440.734C874.328 442.193 873.703 443.82 873.312 445.617C872.948 447.388 872.766 449.198 872.766 451.047V452.688C872.766 454.536 872.948 456.359 873.312 458.156C873.677 459.953 874.289 461.581 875.148 463.039C876.034 464.497 877.219 465.669 878.703 466.555C880.214 467.414 882.089 467.844 884.328 467.844ZM916.516 413V473H909.289V413H916.516ZM914.797 450.266L911.789 450.148C911.815 447.258 912.245 444.589 913.078 442.141C913.911 439.667 915.083 437.518 916.594 435.695C918.104 433.872 919.901 432.466 921.984 431.477C924.094 430.461 926.424 429.953 928.977 429.953C931.06 429.953 932.935 430.24 934.602 430.812C936.268 431.359 937.688 432.245 938.859 433.469C940.057 434.693 940.969 436.281 941.594 438.234C942.219 440.161 942.531 442.518 942.531 445.305V473H935.266V445.227C935.266 443.013 934.94 441.242 934.289 439.914C933.638 438.56 932.688 437.583 931.438 436.984C930.188 436.359 928.651 436.047 926.828 436.047C925.031 436.047 923.391 436.424 921.906 437.18C920.448 437.935 919.185 438.977 918.117 440.305C917.076 441.633 916.255 443.156 915.656 444.875C915.083 446.568 914.797 448.365 914.797 450.266ZM960.578 439.758V473H953.352V430.734H960.188L960.578 439.758ZM958.859 450.266L955.852 450.148C955.878 447.258 956.307 444.589 957.141 442.141C957.974 439.667 959.146 437.518 960.656 435.695C962.167 433.872 963.964 432.466 966.047 431.477C968.156 430.461 970.487 429.953 973.039 429.953C975.122 429.953 976.997 430.24 978.664 430.812C980.331 431.359 981.75 432.245 982.922 433.469C984.12 434.693 985.031 436.281 985.656 438.234C986.281 440.161 986.594 442.518 986.594 445.305V473H979.328V445.227C979.328 443.013 979.003 441.242 978.352 439.914C977.701 438.56 976.75 437.583 975.5 436.984C974.25 436.359 972.714 436.047 970.891 436.047C969.094 436.047 967.453 436.424 965.969 437.18C964.51 437.935 963.247 438.977 962.18 440.305C961.138 441.633 960.318 443.156 959.719 444.875C959.146 446.568 958.859 448.365 958.859 450.266ZM995.656 452.336V451.438C995.656 448.391 996.099 445.565 996.984 442.961C997.87 440.331 999.146 438.052 1000.81 436.125C1002.48 434.172 1004.5 432.661 1006.87 431.594C1009.24 430.5 1011.89 429.953 1014.84 429.953C1017.8 429.953 1020.47 430.5 1022.84 431.594C1025.24 432.661 1027.27 434.172 1028.94 436.125C1030.63 438.052 1031.92 440.331 1032.8 442.961C1033.69 445.565 1034.13 448.391 1034.13 451.438V452.336C1034.13 455.383 1033.69 458.208 1032.8 460.812C1031.92 463.417 1030.63 465.695 1028.94 467.648C1027.27 469.576 1025.25 471.086 1022.88 472.18C1020.54 473.247 1017.88 473.781 1014.91 473.781C1011.95 473.781 1009.28 473.247 1006.91 472.18C1004.54 471.086 1002.51 469.576 1000.81 467.648C999.146 465.695 997.87 463.417 996.984 460.812C996.099 458.208 995.656 455.383 995.656 452.336ZM1002.88 451.438V452.336C1002.88 454.445 1003.13 456.438 1003.62 458.312C1004.12 460.161 1004.86 461.802 1005.85 463.234C1006.87 464.667 1008.13 465.799 1009.64 466.633C1011.15 467.44 1012.91 467.844 1014.91 467.844C1016.89 467.844 1018.62 467.44 1020.11 466.633C1021.62 465.799 1022.87 464.667 1023.86 463.234C1024.85 461.802 1025.59 460.161 1026.09 458.312C1026.61 456.438 1026.87 454.445 1026.87 452.336V451.438C1026.87 449.354 1026.61 447.388 1026.09 445.539C1025.59 443.664 1024.84 442.01 1023.82 440.578C1022.83 439.12 1021.58 437.974 1020.07 437.141C1018.59 436.307 1016.84 435.891 1014.84 435.891C1012.86 435.891 1011.11 436.307 1009.6 437.141C1008.12 437.974 1006.87 439.12 1005.85 440.578C1004.86 442.01 1004.12 443.664 1003.62 445.539C1003.13 447.388 1002.88 449.354 1002.88 451.438ZM1051.05 413V473H1043.78V413H1051.05ZM1060.73 452.336V451.438C1060.73 448.391 1061.18 445.565 1062.06 442.961C1062.95 440.331 1064.22 438.052 1065.89 436.125C1067.56 434.172 1069.58 432.661 1071.95 431.594C1074.32 430.5 1076.97 429.953 1079.91 429.953C1082.88 429.953 1085.55 430.5 1087.92 431.594C1090.32 432.661 1092.35 434.172 1094.02 436.125C1095.71 438.052 1097 440.331 1097.88 442.961C1098.77 445.565 1099.21 448.391 1099.21 451.438V452.336C1099.21 455.383 1098.77 458.208 1097.88 460.812C1097 463.417 1095.71 465.695 1094.02 467.648C1092.35 469.576 1090.33 471.086 1087.96 472.18C1085.62 473.247 1082.96 473.781 1079.99 473.781C1077.02 473.781 1074.35 473.247 1071.98 472.18C1069.61 471.086 1067.58 469.576 1065.89 467.648C1064.22 465.695 1062.95 463.417 1062.06 460.812C1061.18 458.208 1060.73 455.383 1060.73 452.336ZM1067.96 451.438V452.336C1067.96 454.445 1068.21 456.438 1068.7 458.312C1069.2 460.161 1069.94 461.802 1070.93 463.234C1071.95 464.667 1073.21 465.799 1074.72 466.633C1076.23 467.44 1077.99 467.844 1079.99 467.844C1081.97 467.844 1083.7 467.44 1085.19 466.633C1086.7 465.799 1087.95 464.667 1088.94 463.234C1089.93 461.802 1090.67 460.161 1091.16 458.312C1091.68 456.438 1091.95 454.445 1091.95 452.336V451.438C1091.95 449.354 1091.68 447.388 1091.16 445.539C1090.67 443.664 1089.91 442.01 1088.9 440.578C1087.91 439.12 1086.66 437.974 1085.15 437.141C1083.66 436.307 1081.92 435.891 1079.91 435.891C1077.93 435.891 1076.19 436.307 1074.68 437.141C1073.2 437.974 1071.95 439.12 1070.93 440.578C1069.94 442.01 1069.2 443.664 1068.7 445.539C1068.21 447.388 1067.96 449.354 1067.96 451.438ZM1135.66 430.734H1142.22V472.102C1142.22 475.826 1141.46 479.003 1139.95 481.633C1138.44 484.263 1136.33 486.255 1133.62 487.609C1130.94 488.99 1127.84 489.68 1124.33 489.68C1122.87 489.68 1121.15 489.445 1119.17 488.977C1117.22 488.534 1115.29 487.766 1113.39 486.672C1111.52 485.604 1109.94 484.159 1108.66 482.336L1112.45 478.039C1114.22 480.174 1116.07 481.659 1118 482.492C1119.95 483.326 1121.88 483.742 1123.78 483.742C1126.07 483.742 1128.05 483.312 1129.72 482.453C1131.39 481.594 1132.67 480.318 1133.59 478.625C1134.52 476.958 1134.99 474.901 1134.99 472.453V440.031L1135.66 430.734ZM1106.55 452.336V451.516C1106.55 448.286 1106.93 445.357 1107.69 442.727C1108.47 440.07 1109.58 437.792 1111.01 435.891C1112.47 433.99 1114.22 432.531 1116.28 431.516C1118.34 430.474 1120.66 429.953 1123.23 429.953C1125.89 429.953 1128.21 430.422 1130.19 431.359C1132.19 432.271 1133.89 433.612 1135.27 435.383C1136.67 437.128 1137.78 439.237 1138.59 441.711C1139.39 444.185 1139.95 446.984 1140.27 450.109V453.703C1139.98 456.802 1139.42 459.589 1138.59 462.062C1137.78 464.536 1136.67 466.646 1135.27 468.391C1133.89 470.135 1132.19 471.477 1130.19 472.414C1128.18 473.326 1125.84 473.781 1123.16 473.781C1120.63 473.781 1118.34 473.247 1116.28 472.18C1114.25 471.112 1112.51 469.615 1111.05 467.688C1109.59 465.76 1108.47 463.495 1107.69 460.891C1106.93 458.26 1106.55 455.409 1106.55 452.336ZM1113.78 451.516V452.336C1113.78 454.445 1113.99 456.424 1114.41 458.273C1114.85 460.122 1115.51 461.75 1116.4 463.156C1117.31 464.562 1118.47 465.669 1119.88 466.477C1121.28 467.258 1122.96 467.648 1124.91 467.648C1127.31 467.648 1129.29 467.141 1130.85 466.125C1132.41 465.109 1133.65 463.768 1134.56 462.102C1135.5 460.435 1136.23 458.625 1136.75 456.672V447.258C1136.46 445.826 1136.02 444.445 1135.42 443.117C1134.85 441.763 1134.09 440.565 1133.16 439.523C1132.24 438.456 1131.11 437.609 1129.76 436.984C1128.4 436.359 1126.82 436.047 1124.99 436.047C1123.01 436.047 1121.31 436.464 1119.88 437.297C1118.47 438.104 1117.31 439.224 1116.4 440.656C1115.51 442.062 1114.85 443.703 1114.41 445.578C1113.99 447.427 1113.78 449.406 1113.78 451.516ZM1161.05 430.734V473H1153.78V430.734H1161.05ZM1153.23 419.523C1153.23 418.352 1153.59 417.362 1154.29 416.555C1155.02 415.747 1156.09 415.344 1157.49 415.344C1158.87 415.344 1159.93 415.747 1160.66 416.555C1161.41 417.362 1161.79 418.352 1161.79 419.523C1161.79 420.643 1161.41 421.607 1160.66 422.414C1159.93 423.195 1158.87 423.586 1157.49 423.586C1156.09 423.586 1155.02 423.195 1154.29 422.414C1153.59 421.607 1153.23 420.643 1153.23 419.523ZM1190.19 473.781C1187.24 473.781 1184.58 473.286 1182.18 472.297C1179.81 471.281 1177.77 469.862 1176.05 468.039C1174.35 466.216 1173.05 464.055 1172.14 461.555C1171.23 459.055 1170.77 456.32 1170.77 453.352V451.711C1170.77 448.273 1171.28 445.214 1172.3 442.531C1173.31 439.823 1174.69 437.531 1176.44 435.656C1178.18 433.781 1180.16 432.362 1182.38 431.398C1184.59 430.435 1186.88 429.953 1189.25 429.953C1192.27 429.953 1194.88 430.474 1197.06 431.516C1199.28 432.557 1201.09 434.016 1202.49 435.891C1203.9 437.74 1204.94 439.927 1205.62 442.453C1206.29 444.953 1206.63 447.688 1206.63 450.656V453.898H1175.07V448H1199.41V447.453C1199.3 445.578 1198.91 443.755 1198.23 441.984C1197.58 440.214 1196.54 438.755 1195.11 437.609C1193.68 436.464 1191.72 435.891 1189.25 435.891C1187.61 435.891 1186.1 436.242 1184.72 436.945C1183.34 437.622 1182.15 438.638 1181.16 439.992C1180.17 441.346 1179.41 443 1178.86 444.953C1178.31 446.906 1178.04 449.159 1178.04 451.711V453.352C1178.04 455.357 1178.31 457.245 1178.86 459.016C1179.43 460.76 1180.25 462.297 1181.32 463.625C1182.41 464.953 1183.73 465.995 1185.27 466.75C1186.83 467.505 1188.6 467.883 1190.58 467.883C1193.13 467.883 1195.29 467.362 1197.06 466.32C1198.83 465.279 1200.38 463.885 1201.71 462.141L1206.09 465.617C1205.17 466.997 1204.02 468.312 1202.61 469.562C1201.2 470.812 1199.47 471.828 1197.41 472.609C1195.38 473.391 1192.97 473.781 1190.19 473.781ZM1239.68 461.789C1239.68 460.747 1239.45 459.784 1238.98 458.898C1238.53 457.987 1237.61 457.167 1236.2 456.438C1234.82 455.682 1232.74 455.031 1229.95 454.484C1227.61 453.99 1225.49 453.404 1223.59 452.727C1221.71 452.049 1220.11 451.229 1218.78 450.266C1217.48 449.302 1216.48 448.169 1215.77 446.867C1215.07 445.565 1214.72 444.042 1214.72 442.297C1214.72 440.63 1215.08 439.055 1215.81 437.57C1216.57 436.086 1217.62 434.771 1218.98 433.625C1220.36 432.479 1222.01 431.581 1223.94 430.93C1225.86 430.279 1228.01 429.953 1230.38 429.953C1233.77 429.953 1236.66 430.552 1239.05 431.75C1241.45 432.948 1243.29 434.549 1244.56 436.555C1245.84 438.534 1246.48 440.734 1246.48 443.156H1239.25C1239.25 441.984 1238.9 440.852 1238.2 439.758C1237.52 438.638 1236.52 437.714 1235.19 436.984C1233.89 436.255 1232.28 435.891 1230.38 435.891C1228.38 435.891 1226.75 436.203 1225.5 436.828C1224.28 437.427 1223.38 438.195 1222.8 439.133C1222.26 440.07 1221.98 441.06 1221.98 442.102C1221.98 442.883 1222.11 443.586 1222.38 444.211C1222.66 444.81 1223.16 445.37 1223.86 445.891C1224.56 446.385 1225.55 446.854 1226.83 447.297C1228.1 447.74 1229.73 448.182 1231.71 448.625C1235.17 449.406 1238.03 450.344 1240.27 451.438C1242.51 452.531 1244.17 453.872 1245.27 455.461C1246.36 457.049 1246.91 458.977 1246.91 461.242C1246.91 463.091 1246.52 464.784 1245.73 466.32C1244.98 467.857 1243.87 469.185 1242.41 470.305C1240.98 471.398 1239.26 472.258 1237.26 472.883C1235.28 473.482 1233.05 473.781 1230.58 473.781C1226.85 473.781 1223.7 473.117 1221.12 471.789C1218.55 470.461 1216.59 468.742 1215.27 466.633C1213.94 464.523 1213.27 462.297 1213.27 459.953H1220.54C1220.64 461.932 1221.22 463.508 1222.26 464.68C1223.3 465.826 1224.58 466.646 1226.09 467.141C1227.6 467.609 1229.09 467.844 1230.58 467.844C1232.56 467.844 1234.21 467.583 1235.54 467.062C1236.89 466.542 1237.92 465.826 1238.62 464.914C1239.33 464.003 1239.68 462.961 1239.68 461.789Z" fill="#0D809F"/>
<defs>
<linearGradient id="paint0_linear_2026_8064" x1="32.6191" y1="60.5781" x2="2557.61" y2="901.122" gradientUnits="userSpaceOnUse">
<stop stop-color="#0D809F"/>
<stop offset="1" stop-color="#4EC6C8"/>
</linearGradient>
<linearGradient id="paint1_linear_2026_8064" x1="32.6191" y1="60.5781" x2="2557.61" y2="901.122" gradientUnits="userSpaceOnUse">
<stop stop-color="#0D809F"/>
<stop offset="1" stop-color="#4EC6C8"/>
</linearGradient>
<linearGradient id="paint2_linear_2026_8064" x1="32.6191" y1="60.5781" x2="2557.61" y2="901.122" gradientUnits="userSpaceOnUse">
<stop stop-color="#0D809F"/>
<stop offset="1" stop-color="#4EC6C8"/>
</linearGradient>
<linearGradient id="paint3_linear_2026_8064" x1="32.6191" y1="60.5781" x2="2557.61" y2="901.122" gradientUnits="userSpaceOnUse">
<stop stop-color="#0D809F"/>
<stop offset="1" stop-color="#4EC6C8"/>
</linearGradient>
<linearGradient id="paint4_linear_2026_8064" x1="32.6191" y1="60.5781" x2="2557.61" y2="901.122" gradientUnits="userSpaceOnUse">
<stop stop-color="#0D809F"/>
<stop offset="1" stop-color="#4EC6C8"/>
</linearGradient>
<linearGradient id="paint5_linear_2026_8064" x1="32.6191" y1="60.5781" x2="2557.61" y2="901.122" gradientUnits="userSpaceOnUse">
<stop stop-color="#0D809F"/>
<stop offset="1" stop-color="#4EC6C8"/>
</linearGradient>
<linearGradient id="paint6_linear_2026_8064" x1="32.6191" y1="60.5781" x2="2557.61" y2="901.122" gradientUnits="userSpaceOnUse">
<stop stop-color="#0D809F"/>
<stop offset="1" stop-color="#4EC6C8"/>
</linearGradient>
<linearGradient id="paint7_linear_2026_8064" x1="32.6191" y1="60.5781" x2="2557.61" y2="901.122" gradientUnits="userSpaceOnUse">
<stop stop-color="#0D809F"/>
<stop offset="1" stop-color="#4EC6C8"/>
</linearGradient>
<linearGradient id="paint8_linear_2026_8064" x1="32.6191" y1="60.5781" x2="2557.61" y2="901.122" gradientUnits="userSpaceOnUse">
<stop stop-color="#0D809F"/>
<stop offset="1" stop-color="#4EC6C8"/>
</linearGradient>
</defs>
</svg>
