<svg xmlns="http://www.w3.org/2000/svg" width="94" height="94" viewBox="0 0 94 94">
    <g fill="none">
        <path fill="#C1EAF4" d="M2.086 48.883H90.813V91.936H2.086z" transform="translate(.49)"/>
        <path fill="#425162" d="M61.926 58.785c-.134 0-.27-.013-.403-.04-.132-.026-.262-.066-.386-.117-.125-.052-.245-.116-.356-.19-.114-.076-.22-.163-.314-.258-.095-.095-.182-.2-.256-.314-.074-.111-.138-.23-.19-.355-.051-.125-.093-.255-.117-.385-.027-.135-.042-.27-.042-.405 0-.134.015-.27.042-.402.024-.132.066-.262.117-.386.052-.126.116-.246.19-.357.074-.114.161-.219.256-.314s.2-.181.314-.256c.111-.074.23-.138.356-.19.124-.051.254-.09.386-.117.267-.054.539-.054.805 0 .132.027.262.066.386.118.126.051.245.115.357.19.113.074.219.16.313.255.095.095.182.2.256.314.075.111.139.231.19.357.052.123.093.253.12.386.027.132.04.268.04.402s-.013.27-.04.405c-.027.13-.068.26-.12.385-.051.124-.115.244-.19.355-.074.114-.16.219-.256.314-.094.095-.2.182-.313.258-.112.074-.231.138-.357.19-.124.051-.254.09-.386.117-.132.027-.268.04-.402.04zM30.973 58.785c-.134 0-.27-.013-.402-.04-.132-.026-.262-.066-.386-.117-.126-.052-.246-.116-.357-.19-.114-.076-.219-.163-.314-.258-.384-.384-.604-.914-.604-1.459 0-.134.014-.27.04-.402.026-.132.067-.262.119-.386.051-.126.115-.246.19-.357.074-.114.16-.219.255-.314s.2-.181.314-.256c.111-.074.231-.138.357-.19.124-.051.254-.09.386-.117.266-.054.54-.054.804 0 .132.027.262.066.388.118.124.051.244.115.355.19.114.074.219.16.314.255s.181.2.256.314c.074.111.138.231.19.357.051.123.093.253.117.386.027.132.042.268.042.402 0 .545-.221 1.075-.605 1.459-.095.095-.2.182-.314.258-.111.074-.23.138-.354.19-.126.051-.256.09-.388.117-.133.027-.269.04-.403.04z" transform="translate(.49)"/>
        <path fill="#F5C159" d="M46.384 2.064H60.959V11.866H46.384z" transform="translate(.49)"/>
        <path fill="#2974A8" d="M70.25 38.98c-1.655-11.664-11.68-20.635-23.8-20.635-12.122 0-22.146 8.97-23.801 20.635h47.6z" transform="translate(.49)"/>
        <path fill="#F58038" d="M39.721 72.341H53.17699999999999V91.93599999999999H39.721z" transform="translate(.49)"/>
        <path fill="#F5C159" d="M11.447 56.208H23.106V65.081H11.447z" transform="translate(.49)"/>
        <path fill="#425162" d="M23.107 67.145h-11.66c-1.14 0-2.063-.924-2.063-2.063v-8.873c0-1.14.924-2.064 2.063-2.064h11.66c1.14 0 2.063.924 2.063 2.064v8.873c0 1.14-.924 2.063-2.063 2.063zm-9.596-4.127h7.532v-4.746h-7.532v4.746z" transform="translate(.49)"/>
        <path fill="#F5C159" d="M11.447 74.615H23.106V83.488H11.447z" transform="translate(.49)"/>
        <path fill="#425162" d="M23.107 85.552h-11.66c-1.14 0-2.063-.924-2.063-2.064v-8.873c0-1.14.924-2.064 2.063-2.064h11.66c1.14 0 2.063.924 2.063 2.064v8.873c0 1.14-.924 2.064-2.063 2.064zm-9.596-4.127h7.532v-4.747h-7.532v4.747z" transform="translate(.49)"/>
        <path fill="#F5C159" d="M40.618 56.208H52.277V65.081H40.618z" transform="translate(.49)"/>
        <path fill="#425162" d="M52.28 67.145H40.62c-1.14 0-2.064-.924-2.064-2.063v-8.873c0-1.14.924-2.064 2.064-2.064h11.66c1.139 0 2.063.924 2.063 2.064v8.873c0 1.14-.924 2.063-2.064 2.063zm-9.597-4.127h7.533v-4.746h-7.533v4.746z" transform="translate(.49)"/>
        <path fill="#F5C159" d="M69.793 56.208H81.45200000000001V65.081H69.793z" transform="translate(.49)"/>
        <path fill="#425162" d="M81.451 67.145h-11.66c-1.139 0-2.063-.924-2.063-2.063v-8.873c0-1.14.924-2.064 2.064-2.064h11.66c1.14 0 2.063.924 2.063 2.064v8.873c0 1.14-.924 2.063-2.064 2.063zm-9.596-4.127h7.533v-4.746h-7.533v4.746z" transform="translate(.49)"/>
        <path fill="#F5C159" d="M69.793 74.615H81.45200000000001V83.488H69.793z" transform="translate(.49)"/>
        <path fill="#425162" d="M81.451 85.552h-11.66c-1.139 0-2.063-.924-2.063-2.064v-8.873c0-1.14.924-2.064 2.064-2.064h11.66c1.14 0 2.063.924 2.063 2.064v8.873c0 1.14-.924 2.064-2.064 2.064zm-9.596-4.127h7.533v-4.747h-7.533v4.747z" transform="translate(.49)"/>
        <path fill="#C1E8E6" d="M8.686 38.98H84.213V48.882999999999996H8.686z" transform="translate(.49)"/>
        <path fill="#425162" d="M90.813 46.82h-4.537v-7.84c0-1.14-.924-2.064-2.064-2.064H71.977c-1.17-5.474-4.09-10.457-8.343-14.18-4.252-3.722-9.583-5.947-15.186-6.377v-2.43h12.51c1.14 0 2.064-.924 2.064-2.064V2.064C63.022.924 62.098 0 60.96 0H46.384c-1.14 0-2.063.924-2.063 2.064V16.37c-5.556.453-10.837 2.673-15.056 6.366-4.254 3.723-7.174 8.706-8.344 14.18H8.686c-1.14 0-2.063.925-2.063 2.064v7.84H2.086c-1.14 0-2.064.924-2.064 2.063v43.053C.022 93.076.946 94 2.086 94h88.727c1.14 0 2.063-.924 2.063-2.064V48.883c0-1.14-.923-2.063-2.063-2.063zM48.448 4.127h10.447v5.675H48.448V4.127zM46.45 20.408c10.07 0 18.832 6.948 21.29 16.509H25.16c2.459-9.561 11.222-16.509 21.29-16.509zm-35.7 20.635H82.15v5.777h-71.4v-5.777zm31.036 48.83V74.405h9.33v15.468h-9.33zm46.964 0H63.99V63.531c0-1.14-.923-2.063-2.063-2.063-1.14 0-2.064.924-2.064 2.063v26.342h-4.62V72.341c0-1.14-.925-2.063-2.064-2.063H39.72c-1.14 0-2.064.924-2.064 2.063v17.532h-4.62V63.531c0-1.14-.925-2.063-2.064-2.063-1.14 0-2.064.924-2.064 2.063v26.342H4.149V50.947H88.75v38.926z" transform="translate(.49)"/>
    </g>
</svg>
